<svg xmlns="http://www.w3.org/2000/svg" viewBox="0 0 192 192" width="192" height="192">
  <defs>
    <linearGradient id="grad1" x1="0%" y1="0%" x2="100%" y2="100%">
      <stop offset="0%" style="stop-color:#3b82f6"/>
      <stop offset="50%" style="stop-color:#8b5cf6"/>
      <stop offset="100%" style="stop-color:#ec4899"/>
    </linearGradient>
    <linearGradient id="grad2" x1="0%" y1="0%" x2="100%" y2="100%">
      <stop offset="0%" style="stop-color:#06b6d4"/>
      <stop offset="100%" style="stop-color:#3b82f6"/>
    </linearGradient>
  </defs>
  
  <rect width="192" height="192" rx="40" fill="#0a0f1a"/>
  
  <circle cx="96" cy="96" r="80" fill="none" stroke="url(#grad1)" stroke-width="6" opacity="0.8"/>
  <circle cx="96" cy="96" r="65" fill="none" stroke="url(#grad2)" stroke-width="3" opacity="0.4"/>
  
  <circle cx="96" cy="96" r="20" fill="url(#grad1)"/>
  
  <g stroke="url(#grad2)" stroke-width="4" opacity="0.6">
    <line x1="96" y1="96" x2="96" y2="30"/>
    <line x1="96" y1="96" x2="155" y2="61"/>
    <line x1="96" y1="96" x2="155" y2="131"/>
    <line x1="96" y1="96" x2="96" y2="162"/>
    <line x1="96" y1="96" x2="37" y2="131"/>
    <line x1="96" y1="96" x2="37" y2="61"/>
  </g>
  
  <circle cx="96" cy="30" r="10" fill="url(#grad1)"/>
  <circle cx="155" cy="61" r="8" fill="#06b6d4"/>
  <circle cx="155" cy="131" r="8" fill="#8b5cf6"/>
  <circle cx="96" cy="162" r="10" fill="url(#grad1)"/>
  <circle cx="37" cy="131" r="8" fill="#ec4899"/>
  <circle cx="37" cy="61" r="8" fill="#06b6d4"/>
  
  <path d="M103 82 L88 102 L98 102 L93 120 L110 96 L100 96 L105 82 Z" fill="white"/>
  
  <text x="96" y="170" font-family="Arial Black" font-size="28" font-weight="900" fill="url(#grad1)" fill-opacity="0.2" text-anchor="middle">TH</text>
</svg>
